<svg xmlns="http://www.w3.org/2000/svg" width="512" height="512" fill="current"><path fill="#000" d="M244.512 85.914c5.52 3.26 9.499 7.495 11.8 13.523 1.473 7.63.675 13.848-3.312 20.563-2.235 2.44-4.587 4.737-7 7l2.968.044c68.04 1.09 142.809 12.65 192.834 63.404 18.545 19.417 28.891 42.806 28.448 69.724-1.747 26.747-16.086 50.664-35.635 68.411-14.13 12.396-34.026 29.134-53.611 28.726-6.179-.635-10.215-3.17-14.379-7.684-4.654-5.982-5.522-12.21-4.625-19.625 1.904-6.71 6.359-11.137 12-15a323.17 323.17 0 0 1 9.217-4.881c6.474-3.362 12.142-7.494 17.783-12.119l2.684-2.184c10.431-8.907 20.354-21.46 21.554-35.628.358-15.367-5.744-27.847-16.047-39.094C366.741 180.535 302.253 171.067 246 172l1.426 1.32c4.763 4.557 8.103 8.295 9.043 15.047.078 8.758-.862 13.828-6.926 20.153-4.788 4.384-9.905 6.02-16.367 5.777-10.087-1.377-16.416-7.642-23.293-14.617a2588.566 2588.566 0 0 0-3.09-3.073 1051.86 1051.86 0 0 1-6.408-6.44 899.973 899.973 0 0 0-8.19-8.169 1019.802 1019.802 0 0 1-6.352-6.352 473.94 473.94 0 0 0-3.022-3.007c-6.942-6.867-12.65-13.594-13.321-23.702 1.353-10.655 7.815-16.972 15.18-24.21 1.057-1.056 2.113-2.112 3.168-3.169 2.203-2.201 4.414-4.394 6.632-6.58 2.834-2.794 5.65-5.605 8.46-8.423 2.174-2.178 4.357-4.348 6.542-6.516 1.04-1.034 2.08-2.07 3.116-3.107 1.452-1.45 2.914-2.89 4.378-4.328l2.507-2.482c7.047-5.942 16.292-7.387 25.029-4.208ZM137.813 156.5c5.835 2.95 8.941 7.725 11.562 13.563 1.421 6.68.665 11.931-2.375 17.937-3.919 5.757-8.561 8.836-14.688 11.938C112.41 210.522 94.5 224.83 87.356 247c-2.508 14.112 1.89 25.446 9.645 37 23.372 31.862 71.062 46.406 108.23 52.156 20.386 2.993 40.182 4.01 60.77 3.844l-1.463-1.42-1.916-1.88-1.9-1.857c-4.877-5.222-5.274-11.083-5.06-17.91.721-6.232 3.157-10.255 7.901-14.308 5.32-3.625 11.302-4.981 17.708-4.43 8.509 1.79 13.936 7.731 19.796 13.676l2.293 2.301c2.406 2.417 4.805 4.841 7.204 7.265 1.616 1.627 3.232 3.252 4.85 4.877 2.97 2.987 5.937 5.976 8.902 8.969 2.187 2.208 4.377 4.412 6.575 6.609 6.468 6.462 10.515 11.754 11.548 21.046-.556 10.573-7.983 17.337-15.083 24.335a2966.987 2966.987 0 0 0-3.16 3.169 1349.664 1349.664 0 0 1-6.62 6.58 1267.31 1267.31 0 0 0-8.432 8.423c-2.17 2.18-4.348 4.35-6.53 6.516a795.874 795.874 0 0 0-3.106 3.107c-12.269 12.316-12.269 12.316-21.82 12.432-6.718-.213-12.685-2.346-17.386-7.285-4.96-6.693-4.978-13.167-4.301-21.215 1.724-6.11 5.555-9.671 10-14l-2.968-.044c-69.756-1.117-142.416-13.544-193.825-64.737C62.622 313.409 57.604 306.314 53 298l-1.46-2.621C41.231 275.858 39.26 254.188 45 233c7.305-23.094 22.798-43.202 42.125-57.688l2.029-1.522c32.249-23.565 32.249-23.565 48.659-17.29Z"/></svg>
